<?xml version="1.0" encoding="utf-8"?>
<!-- Generator: Adobe Illustrator 17.1.0, SVG Export Plug-In . SVG Version: 6.00 Build 0)  -->
<!DOCTYPE svg PUBLIC "-//W3C//DTD SVG 1.1//EN" "http://www.w3.org/Graphics/SVG/1.1/DTD/svg11.dtd">
<svg version="1.1" id="Layer_1" xmlns="http://www.w3.org/2000/svg" xmlns:xlink="http://www.w3.org/1999/xlink" x="0px" y="0px"
	 viewBox="0 0 960 260" enable-background="new 0 0 960 260" xml:space="preserve">
<g>
	<g>
		<path d="M254.6,138.5c-3.2-10.5-6.3-21.1-9-31.8c3,0.6,5.7,0,9.7-1.1c7.7-2.2,15.1-5.9,22.3-9.4c2.9-1.4,0.4-5.7-2.5-4.3
			c-7.8,3.8-15.8,7.6-24.2,9.8c-2.3,0.6-4.4,0.3-6.6-0.3c-0.9-3.9-1.8-7.8-2.6-11.7c-1.7-8.4-3-16.9-3.7-25.4
			c-0.7-7.9,0.4-15.8-0.9-23.6c-0.4-2.5-4.3-2.3-4.8,0c-4.7,19-7.1,38.3-12.2,57.2c-1.5,0.2-3.1,0.5-4.6,0.8
			c-7.3,1.3-14.3,3.6-20,8.4c-2.5,2.1,1.1,5.6,3.5,3.5c5.5-4.6,12.6-6.2,19.5-7.4c-0.3,1.1-0.7,2.3-1.1,3.4
			c-7,21.5-16.6,42.1-21.1,64.4c-0.6,3.1,4.2,4.5,4.8,1.3c4.3-21.6,13.4-41.8,20.5-62.6c0.8-2.4,1.5-4.8,2.2-7.2
			c5.5-0.4,10.6,0.2,15.9,2.3c2.9,11.8,6.3,23.5,9.8,35.1c9.5,31.3,21.9,62,38.4,90.4c1.6,2.8,5.9,0.3,4.3-2.5
			C276.2,199.7,264.2,169.5,254.6,138.5z M235.1,98c-3.1-0.8-6.3-0.9-9.6-0.7c3.1-11.8,5.2-23.8,7.5-35.8c0,1.6,0.1,3.2,0.2,4.7
			c0.7,8.3,2.1,16.6,3.7,24.9c0.5,2.7,1.1,5.5,1.7,8.2C237.5,98.7,236.3,98.3,235.1,98z"/>
		<g>
			<path d="M257.1,137.8c-3.2-10.5-6.3-21.1-9-31.8c-1,1-2.1,2.1-3.1,3.1c6.9,1,13.5-1.7,19.8-4.2c3.7-1.5,7.2-3.2,10.8-4.9
				c2.1-1,5.8-2.3,5.8-5.3c0-4-3.7-6.9-7.5-5c-4.3,2.1-8.6,4.1-13,5.9c-4.9,2-10.5,4.6-15.9,3.2c0.6,0.6,1.2,1.2,1.7,1.7
				c-2.8-12-5.1-24.1-6.2-36.4c-0.6-6.5,0-13.1-0.4-19.7c-0.2-3.6-0.4-6.9-4.2-8.1c-2.4-0.8-5.4,1.1-6,3.5c-1.5,6.1-2.8,12.3-4,18.5
				c-2.5,13-4.8,26-8.2,38.7c0.6-0.6,1.2-1.2,1.7-1.7c-5.9,0.9-11.8,2-17.2,4.5c-3,1.4-11.2,4.8-10,9.5c0.7,2.9,4.1,5.5,7.1,3.8
				c3-1.7,5.5-3.7,8.8-5c3.5-1.4,7.3-2,11.1-2.7c-1-1-2.1-2.1-3.1-3.1c-4.5,14.6-10.4,28.6-15.3,43c-2.4,6.9-4.4,14-6.1,21.1
				c-1,4.1-1.7,8.4,3.3,9.8c4.6,1.3,5.6-4,6.3-7.1c1.7-7.7,4.1-15.3,6.6-22.8c4.9-14.5,11-28.6,15.3-43.3c-0.8,0.6-1.6,1.2-2.4,1.8
				c5.3-0.3,10.2,0.4,15.3,2.2c-0.6-0.6-1.2-1.2-1.7-1.7c10.6,43.2,25.5,85.8,47.6,124.5c2.8,4.9,9.5,5.4,10.2-1.2
				c0.1-1.2-1.1-2.9-1.6-3.9c-1.5-2.6-3-5.3-4.5-8c-2.6-4.8-5.1-9.7-7.5-14.7C271.8,181.4,263.9,159.8,257.1,137.8
				c-1-3.1-5.8-1.8-4.8,1.3c6,19.5,13,38.6,21.4,57.2c4.3,9.5,9,18.7,14,27.8c0.3,0.5,3.3,5.8,0.9,1.6c-1.5-2.6-3-5.3-4.4-8
				c-2.6-4.8-5-9.7-7.4-14.6c-9.4-19.5-17-39.9-23.5-60.5c-3.2-10.3-6.3-20.7-9-31.1c-1.2-4.5-0.8-8.2-5.4-9.8
				c-4.7-1.7-9.9-2-14.8-1.7c-1.1,0.1-2.1,0.7-2.4,1.8c-6.8,22.9-17.2,44.6-22.4,68c-0.5,2.4-0.5,2.4,0,0c0.4-1.8,0.8-3.6,1.2-5.4
				c0.7-3,1.6-5.9,2.4-8.8c1.7-5.8,3.8-11.6,5.8-17.3c4.1-11.4,8.7-22.8,12.2-34.4c0.6-2-1.3-3.4-3.1-3.1c-6.2,1.1-16.4,2.6-20.6,8
				c2.4-3,7.8-4.8,11.3-5.9c3.9-1.3,8.1-1.9,12.2-2.6c0.8-0.1,1.5-1,1.7-1.7c2.6-9.7,4.6-19.6,6.4-29.5c0.9-4.9,1.9-9.9,2.9-14.8
				c0.5-2.5,1-4.9,1.6-7.4c0.5-2.1,1-9.5,1.7-2.3c1,10.2,0.3,20.4,1.6,30.6c1.2,9,3.1,17.9,5.1,26.8c0.2,0.8,0.9,1.5,1.7,1.7
				c9.3,2.3,19.4-3.4,27.7-7.3c0.6-0.3,6.2-3,1.7-0.8c-2.8,1.4-5.6,2.7-8.5,3.9c-5.3,2.3-12.3,5.5-18.2,4.7
				c-1.8-0.3-3.6,1.1-3.1,3.1c2.7,10.7,5.7,21.2,9,31.8C253.2,142.2,258,140.9,257.1,137.8z"/>
			<path d="M235.8,95.5c-3.4-0.8-6.7-1-10.2-0.8c0.8,1.1,1.6,2.1,2.4,3.2c3-11.8,5.2-23.8,7.5-35.8c-1.6-0.2-3.3-0.4-4.9-0.7
				c0.3,12.9,2.9,25.9,5.8,38.4c1-1,2.1-2.1,3.1-3.1C238.2,96.3,237,95.9,235.8,95.5c-3.1-1-4.4,3.9-1.3,4.8
				c1.2,0.3,2.4,0.8,3.6,1.3c1.9,0.7,3.5-1.4,3.1-3.1c-2.7-12.2-5.3-24.6-5.6-37.1c-0.1-2.7-4.4-3.5-4.9-0.7
				c-2.3,12-4.5,24-7.5,35.8c-0.4,1.5,0.8,3.2,2.4,3.2c3-0.1,5.9,0,8.9,0.6C237.6,101.1,238.9,96.2,235.8,95.5z"/>
		</g>
	</g>
	<g>
		<path d="M303.4,166.9c-0.6-10.3-1-20.7-1.3-31c-0.5-21.7,0-43.4,0-65.1c0-3.2-5-3.2-5,0c0,22.4-0.5,44.7,0,67.1
			c0.4,18.8-0.2,39.5,5.5,57.6c1,3.1,5.8,1.8,4.8-1.3C304.7,185.3,303.9,176.1,303.4,166.9z"/>
		<g>
			<path d="M305.9,166.9c-1.6-28.1-1.5-56.2-1.3-84.3c0-4.3,1.5-11-0.9-14.8c-1.5-2.4-5-2.4-7.2-0.9c-3.6,2.5-1.9,10.1-1.9,13.7
				c0,7.2-0.1,14.5-0.2,21.7c-0.2,25.9-1.2,52.7,2.4,78.5c0.7,4.8,2.1,23.7,11.3,17.9c3.7-2.3,1.1-7.5,0.3-10.6
				C306.8,181.2,306.3,174,305.9,166.9c-0.2-3.2-5.2-3.2-5,0c0.5,8.8,1.1,17.8,3.7,26.3c-2.8-9.4-3.8-19.2-4.3-28.9
				c-1.1-19.9-0.9-40-0.8-59.9c0.1-10.5,0.2-21,0.2-31.6c0,9.9-0.1,19.7-0.2,29.6c-0.2,21.5,0.2,43,1.4,64.6
				C301.1,170.1,306.1,170.1,305.9,166.9z"/>
		</g>
	</g>
	<g>
		<path d="M464.4,146.1c-0.9-7.4-6.2-13.6-11-19c-2.1-2.4-5.7,1.1-3.5,3.5c4.2,4.8,8.8,10.1,9.7,16.7c0.9,6.7-3.6,14.1-8.8,18
			c-9.4,7-23.9,1.6-33.2-3c-7.3-3.6-14.3-8.7-20-14.8c0.2-4.4,0.3-8.7,0.1-13c-0.3-9.7-1.4-25.6-11.3-30.9c-1.5-0.8-3.1,0-3.7,1.5
			c-6.4,16.3-0.9,31.9,9.7,44.1c-0.6,7.4-1.9,14.7-4.1,21.6c-1.2,3.8-2.8,8-5.9,10.8c-4.2,3.8-9-4.5-10.6-7.3
			c-9.7-17.6-10-38.3-9.9-57.8c0-2.7-4.5-3.5-4.9-0.7c-1.3,9.1-3,18.2-5.2,27.2c-2.3,9.5-4.9,21.9-12.1,29c-3.1,3.1-6.2,1.6-9-1.1
			c-6.7-6.3-9.1-16-10.1-24.8c-1.1-9.3-0.6-18.8-0.6-28.2c0-12.4,0-24.8,0-37.2c0-3.2-5-3.2-5,0c0,13.1,0,26.1,0,39.2
			c0,10.4-0.3,20.8,1.3,31.1c1.4,9.2,9.7,32.9,23.3,27.1c9.5-4.1,13.1-19.1,15.6-28c0.9-3.1,1.7-6.3,2.4-9.5
			c1.2,14.3,4.3,28.4,12.4,40.1c2.9,4.2,8.2,8.5,13.6,6c4-1.9,6.3-6.4,7.9-10.2c2.9-7,4.6-14.7,5.5-22.5
			c6.9,6.5,15.1,11.7,23.4,15.1c12.4,5,27.3,7.5,37.2-3.4C462.4,160.6,465.3,153.2,464.4,146.1z M392.7,141.7
			c-6.5-9.3-9.6-20.2-6.4-31.7c5.6,5.7,6,17.8,6.3,24.7C392.7,137,392.7,139.3,392.7,141.7z"/>
		<g>
			<path d="M466.8,145.5c-1-5.9-4-10.6-7.5-15.2c-2.5-3.2-6-8.5-10.5-5.3c-3.4,2.4-1.9,6.1,0.3,8.6c5.2,5.9,9.7,12.3,7.1,20.4
				c-5.1,16.5-23.2,12.7-35.1,7.3c-6.2-2.8-11.9-6.5-17-10.9c-1.3-1.1-2.5-2.3-3.7-3.5c-0.9-0.9-0.3-4-0.2-5.1c0.1-3.5,0-7-0.2-10.6
				c-0.5-9.3-1.8-19.5-8.3-26.7c-2.5-2.8-6.3-5.1-9.7-2.6c-4,2.9-4.3,11.5-4.5,16c-0.3,5.9,1.1,11.8,3.2,17.3c1,2.6,2.4,5.1,3.8,7.5
				c1.2,2.1,5.4,5.8,5.2,8.3c-0.7,7.5-2.3,15-4.8,22c-1.2,3.2-3.7,8.8-7.3,5.2c-1.9-1.9-3.1-4.5-4.4-6.8c-7-13.1-8.4-28.6-8.7-43.2
				c-0.1-3.4-0.1-6.8-0.1-10.1c0-1.6,0.1-3.8-1.3-5c-2.3-1.9-6.2-2.5-8,0.5c-1.4,2.3-1.2,6.1-1.7,8.7c-0.6,3.6-1.3,7.3-2,10.9
				c-1.4,6.8-2.9,13.5-4.8,20.1c-1.8,6.1-4.2,12.1-8.6,16.8c-5.8,6.1-13-14.4-13.7-17.3c-3.5-15-1.8-31.4-1.8-46.7
				c0-7.8,0-15.7,0-23.5c0-3.3-1.5-8.1-6.1-6.8c-4.9,1.5-3.9,6.5-3.9,10.7c0,8.5,0,17,0,25.5c0,14-1.1,28.8,2,42.5
				c2.3,10.2,9.1,28,22.3,26.7c16.3-1.6,20.4-27.8,23.2-40.1c-1.6-0.2-3.3-0.4-4.9-0.7c0.8,9.3,2.3,18.5,5.5,27.3
				c2.8,7.8,7.1,16.7,14.7,20.8c6.8,3.7,13.1-1.4,16.5-7.1c4.9-8.2,6.6-18.4,7.7-27.7c-1.4,0.6-2.8,1.2-4.3,1.8
				c11.9,11,28.1,20,44.7,20.1c15.8,0.1,28.3-14.3,26.9-29.8c-0.3-3.2-5.3-3.2-5,0c1.3,14.8-10.5,25.4-24.8,24.8
				c-14.1-0.6-28.3-9.3-38.4-18.6c-1.7-1.6-4-0.4-4.3,1.8c-1.1,9.3-8.6,43.9-22.3,25.5c-8.2-11-10.9-25.5-12.1-38.9
				c-0.2-2.7-4.2-3.6-4.9-0.7c-2.5,10.8-4.8,24.7-12.6,33c-8.7,9.3-16.6-2.3-20-9.9c-5-11.1-5-23.5-5-35.4c0-7.8,0-15.6,0-23.5
				c0-3.9,0-7.8,0-11.8c0-2,0-3.9,0-5.9c0-0.7,0-7.2,0-2c0,16.1-0.2,32.2-0.1,48.4c0.1,12,0.8,26.4,8.5,36.3c2.3,3,7.3,8.6,11.8,6.7
				c5.2-2.2,8.1-7.4,10.4-12.3c5.5-11.7,7.6-25.6,9.8-38.2c0.3-1.8,0.6-3.6,0.9-5.5c0.1-0.6,0.6-6.5,0.5-2c0,3.4,0,6.8,0.1,10.1
				c0.1,7,0.6,14,1.6,21c1.6,11.3,5.3,23.7,12.9,32.5c8.5,9.9,15.1-5.2,17.2-12.1c2-6.7,3-13.6,3.7-20.5c0.2-2.1-3.2-4.8-4.3-6.3
				c-2.3-3.2-4.2-6.8-5.6-10.4c-2.5-6.4-3.1-13.4-1.8-20.2c0.3-1.6,0.8-3.3,1.3-4.8c0.8-2.6,3,0,3.7,0.7c2.2,2.2,3.5,5.3,4.5,8.1
				c1.6,4.8,2.1,10,2.4,15.1c0.2,2.9,0.2,5.8,0.2,8.7c0,2.4-1.3,7.3,0.5,9.2c13.4,14,44.5,33.1,60.9,13.7c6-7.1,6.8-15.9,2.6-24
				c-1-2-2.4-3.8-3.8-5.5c-0.4-0.5-4.7-5.6-1.8-2.2c3.9,4.6,7.3,9.5,8.3,15.5C462.5,150,467.3,148.6,466.8,145.5z"/>
			<path d="M394.9,140.4c-6.1-9-8.9-19-6.1-29.8c-1.4,0.4-2.8,0.7-4.2,1.1c6.6,7.4,5.7,20.7,5.6,30c0,3.2,5,3.2,5,0
				c0.1-10.8,0.6-24.9-7.1-33.5c-1.3-1.4-3.7-0.7-4.2,1.1c-3.1,12-0.2,23.5,6.6,33.7C392.3,145.6,396.7,143.1,394.9,140.4z"/>
		</g>
	</g>
</g>
<g>
	<g>
		<path d="M352.4,63.2c3.2,0,3.2-5,0-5S349.2,63.2,352.4,63.2L352.4,63.2z"/>
	</g>
</g>
<g>
	<g>
		<path d="M591.9,52c-8.4-0.1-16.9-0.5-25.2-2c-5.2-1-11.5-2.8-16.8-1.6c-9.4,2.1-7.6,12.9-4.5,19.3c4.4,9.3,12.1,17.5,19.5,24.6
			c9.6,9.3,21.8,15.9,34.3,20.4c-0.2-1.5-0.4-3-0.6-4.6c-10.6,7.4-23.6,10-35.1,15.5c-10.3,4.9-18.6,13.4-24.3,23.1
			c-5.6,9.4-7.9,21-3.7,31.4c3.5,8.6,11.3,14.5,19.5,18.1c17.6,7.6,39.5,6.1,57.2-0.3c21.7-7.8,32.3-27.2,37.9-48.5
			c0.8-3.1-4-4.4-4.8-1.3c-5.1,19.7-14.4,37.4-34.4,45c-16.1,6.1-35.5,7.1-51.8,1.3c-8.3-2.9-15.9-8.6-19.3-16.9
			c-4.1-10.2,0.3-21.4,6-29.9c6.2-9.3,15.1-15.7,25.3-19.9c10.1-4.2,20.9-6.9,30-13.2c1.8-1.3,1.5-3.8-0.6-4.6
			c-19.7-7.2-36.3-20.1-47.9-37.6c-3.1-4.7-9.6-17.1,0.9-17.1c4.8,0,9.6,1.4,14.4,2.1c7.9,1.3,16,1.7,24,1.7
			C595.2,57.1,595.2,52.1,591.9,52L591.9,52z"/>
	</g>
</g>
<g>
	<g>
		<path d="M637.5,66.2c-0.2,11.5,1.9,23.3,3.8,34.6c2.6,15.3,5.9,31.2,12.9,45.1c4.4,8.7,13.5,18.9,23.9,12.3
			c6.9-4.4,8.9-15.2,10.5-22.4c1.5-7.3,2.8-14.7,3.4-22.1c0.5-5.3,1-10.7,2.4-15.8c1.1-4,2.7-7.4,6.2-3.5c3.2,3.5,5.2,8.6,6.9,12.9
			c1.4,3.6,3,7.6,3.4,11.4c1.3-0.7,2.5-1.4,3.8-2.2c-15-11.2-19.7-31.4-35.3-42.2c-1.5-1-3.1,0.1-3.7,1.5
			c-5.9,14.7-1.8,32.1,4.4,45.9c3.4,7.6,8.2,14.7,14.4,20.3c4.1,3.7,10.1,7.9,16,7.4c10.6-0.9,13.1-16.1,14.5-24.2
			c2-11.5,1.2-23.9,4.3-35.1c-1.5,0.2-3,0.4-4.6,0.6c8.4,13.9,10.6,30.4,15.3,45.7c1.9,6.3,4.4,12.5,6.9,18.5
			c2.1,5.3,5,10.9,10.5,13.5c1,0.5,2.2,0.4,3-0.4c11-10.7,5.8-31.6,1.9-44.3c-5.3-17.4-17.4-33.8-34.9-40.4
			c-0.4,1.6-0.9,3.2-1.3,4.8c21.9,8.1,44.4-4.5,52.8-25.5c-1.6,0-3.2,0-4.8,0c4.2,11.5,5,24.2,7.5,36.1c2.7,13,5.4,25.9,8.5,38.8
			c2.5,10.2,5.2,20.4,7.8,30.7c2.1,8.5,4.9,17.4,11,23.9c0.6,0.6,1.6,0.9,2.4,0.6c8.2-2.6,8.8-12.6,8.6-19.9
			c-0.3-10.4-2.8-20.9-5.7-30.8c-3-10.3-7.6-20.1-12.9-29.4c-6.7-11.8-15.5-24-27.8-30.6c-1.9-1-4.3,0.6-3.7,2.8
			c3.2,11.7,21.5,21,30.9,11c5.4-5.7,8.3-14.6,10.9-21.9c3.6-10,5.8-20.6,7.3-31.1c-1.6-0.2-3.3-0.4-4.9-0.7
			c1.8,15.4,5.8,30.3,10.4,45.1c4.4,14.2,8,28.8,13,42.8c3.5,9.8,8.6,20.8,16.8,27.6c6.9,5.7,16.3,4.1,19.4-4.6
			c1.8-5,2.2-11.1,2.6-16.4c0.6-7.4,0-14.8-1.1-22.1c-2.1-14.5-7.2-28.6-12.9-42.1c-6.6-15.5-12.8-32.7-24.6-45.1
			c-4.1-4.3-11.3-8.9-17.4-5.6c-7.1,3.9-8.4,13.8-3.7,20.1c5,6.8,15.2,10.4,23.4,9.2c11.3-1.6,7.4-15.7,14.5-20.9
			c2.6-1.9,0.1-6.2-2.5-4.3c-3.6,2.6-5.1,6.2-6.3,10.4c-1.8,6.4-3.8,11-11.4,10c-5.1-0.7-10.8-3.5-13.9-7.7
			c-3.2-4.4-1.2-12.7,4.9-12.8c7.9-0.1,14.2,11.2,17.6,16.9c4.3,7.2,7.8,15,11.1,22.7c11.3,26.4,20.8,52.6,16.1,81.7
			c-0.9,5.9-3.7,11.5-10.6,8c-5-2.5-8.3-8.5-11-13.2c-7-12.4-10.1-26.4-14-39.9c-5.8-19.8-12.8-39.1-15.2-59.7
			c-0.3-2.5-4.5-3.7-4.9-0.7c-2.2,15.1-5.9,29.9-12.6,43.7c-2.1,4.3-4.9,9.9-10.3,10.1c-6.3,0.3-15-5.9-16.7-11.8
			c-1.2,0.9-2.4,1.9-3.7,2.8c11.2,6,18.9,16.9,25.2,27.5c5.1,8.5,9.5,17.7,12.5,27.2c2.6,8.3,4.6,16.8,5.6,25.5
			c0.7,5.3,2.6,19-4.4,21.3c0.8,0.2,1.6,0.4,2.4,0.6c-6.4-6.9-8.6-17-10.7-25.8c-2.4-10.1-5.2-20.1-7.7-30.2
			c-3-12.2-5.5-24.6-8-36.9c-2.4-11.4-3.1-23.3-7.1-34.3c-0.9-2.4-3.9-2.3-4.8,0c-7.4,18.6-27.5,29.1-46.6,22
			c-3-1.1-4.3,3.7-1.3,4.8c15.9,5.9,26.4,21.2,31.4,36.9c3.4,10.7,8.8,30.3-0.6,39.4c1-0.1,2-0.3,3-0.4c-5.7-2.7-7.9-9.7-10-15.2
			c-2.2-6.1-4.6-12.1-6.4-18.4c-4.1-14.3-6.6-29.4-14.5-42.4c-1.1-1.8-4-1.5-4.6,0.6c-2.5,8.9-2.3,18.8-3.3,27.9
			c-0.7,5.8-1.6,11.6-3.2,17.1c-1,3.5-2.8,8.8-6.5,10.3c-4.5,1.9-10.3-3-13.4-5.6c-5.7-4.9-9.8-11.4-13.1-18.1
			c-6.2-12.8-9.8-29.6-4.4-43.2c-1.2,0.5-2.4,1-3.7,1.5c15.4,10.7,20.2,30.9,35.3,42.2c1.5,1.1,4-0.4,3.8-2.2
			c-0.7-7-3.8-14-6.8-20.2c-2.3-4.7-6.8-13-13.3-11c-6.8,2.1-7.4,13.9-8.1,19.5c-0.9,7.7-1.7,15.2-3.1,22.8
			c-1.2,6.9-2.8,21.6-10.4,24.7c-4.7,1.9-8.6-0.9-11.5-4.4c-9.3-11.1-12.3-28.4-15.1-42c-2.7-13.6-5.4-28.1-5.2-42
			C642.5,62.9,637.5,62.9,637.5,66.2L637.5,66.2z"/>
	</g>
</g>
<g>
	<g>
		<path d="M629.1,111.3c17.6,0.1,35.2,1.6,52.7-0.8c3.1-0.4,3.2-5.4,0-5c-17.5,2.3-35.1,0.8-52.7,0.8
			C625.9,106.3,625.9,111.3,629.1,111.3L629.1,111.3z"/>
	</g>
</g>
<g>
	<path fill="#3D4999" stroke="#3D4999" stroke-width="2" stroke-miterlimit="10" d="M370.3,226.8c0-4.4-1.6-9-8.3-9
		c-2.8,0-5.4,0.8-7.2,1.9l0.9,2.6c1.5-1,3.7-1.6,5.7-1.6c4.5,0,5,3.3,5,5.1v0.5c-8.5,0-13.2,2.8-13.2,8.1c0,3.2,2.3,6.3,6.7,6.3
		c3.1,0,5.5-1.5,6.7-3.3h0.1l0.3,2.8h3.6c-0.3-1.5-0.4-3.3-0.4-5.2V226.8z M366.5,232.9c0,0.4-0.1,0.9-0.2,1.3
		c-0.6,1.9-2.4,3.7-5.3,3.7c-2,0-3.8-1.2-3.8-3.8c0-4.3,4.9-5,9.3-4.9V232.9z"/>
	<rect x="376.7" y="208.1" fill="#3D4999" stroke="#3D4999" stroke-width="2" stroke-miterlimit="10" width="4" height="32.1"/>
	<rect x="387.4" y="208.1" fill="#3D4999" stroke="#3D4999" stroke-width="2" stroke-miterlimit="10" width="4" height="32.1"/>
	<path fill="#3D4999" stroke="#3D4999" stroke-width="2" stroke-miterlimit="10" d="M400.1,209.7c-1.4,0-2.5,1.1-2.5,2.5
		c0,1.4,1,2.4,2.4,2.4c1.6,0,2.6-1.1,2.5-2.4C402.5,210.8,401.6,209.7,400.1,209.7z"/>
	<rect x="398.1" y="218.4" fill="#3D4999" stroke="#3D4999" stroke-width="2" stroke-miterlimit="10" width="4" height="21.9"/>
	<path fill="#3D4999" stroke="#3D4999" stroke-width="2" stroke-miterlimit="10" d="M417.3,217.9c-6.4,0-10.3,5.2-10.3,11.8
		c0,6.6,4,11,10.8,11c3.5,0,5.9-0.7,7.3-1.4l-0.7-2.8c-1.5,0.6-3.2,1.1-6.1,1.1c-4,0-7.4-2.2-7.5-7.6h15.4c0-0.4,0.1-1,0.1-1.9
		C426.4,224.1,424.5,217.9,417.3,217.9z M410.9,227.2c0.3-2.8,2.1-6.5,6.1-6.5c4.5,0,5.6,3.9,5.5,6.5H410.9z"/>
	<path fill="#3D4999" stroke="#3D4999" stroke-width="2" stroke-miterlimit="10" d="M449.6,217.9c-6.4,0-10.3,5.2-10.3,11.8
		c0,6.6,4,11,10.8,11c3.5,0,5.9-0.7,7.3-1.4l-0.7-2.8c-1.5,0.6-3.2,1.1-6.1,1.1c-4,0-7.4-2.2-7.5-7.6h15.4c0-0.4,0.1-1,0.1-1.9
		C458.6,224.1,456.7,217.9,449.6,217.9z M443.2,227.2c0.3-2.8,2.1-6.5,6.1-6.5c4.5,0,5.6,3.9,5.5,6.5H443.2z"/>
	<path fill="#3D4999" stroke="#3D4999" stroke-width="2" stroke-miterlimit="10" d="M468.4,212.1l-3.9,1v5.2h-3.4v3h3.4v11.9
		c0,2.6,0.4,4.5,1.5,5.7c0.9,1.1,2.4,1.7,4.3,1.7c1.5,0,2.8-0.2,3.5-0.5l-0.2-3c-0.5,0.1-1.3,0.3-2.3,0.3c-2.2,0-3-1.5-3-4.3v-11.8
		h5.7v-3h-5.7V212.1z"/>
	<path fill="#3D4999" stroke="#3D4999" stroke-width="2" stroke-miterlimit="10" d="M488.4,221.1c2.2,0,3.7,0.5,4.6,1l0.9-3.1
		c-1.1-0.5-3.2-1.1-5.5-1.1c-7.1,0-11.8,4.9-11.8,11.6c0,6.7,4.3,11.2,10.9,11.2c2.9,0,5.2-0.7,6.3-1.3l-0.7-3
		c-1.1,0.5-2.6,1.1-4.9,1.1c-4.3,0-7.6-3.1-7.6-8.2C480.7,224.8,483.4,221.1,488.4,221.1z"/>
	<path fill="#3D4999" stroke="#3D4999" stroke-width="2" stroke-miterlimit="10" d="M507.5,217.9c-6.1,0-10.9,4.3-10.9,11.6
		c0,6.9,4.6,11.3,10.5,11.3c5.3,0,10.9-3.5,10.9-11.6C518.1,222.4,513.8,217.9,507.5,217.9z M507.3,237.8c-3.9,0-6.6-3.6-6.6-8.4
		c0-4.2,2-8.5,6.7-8.5c4.7,0,6.6,4.7,6.6,8.4C514,234.2,511.1,237.8,507.3,237.8z"/>
	<path fill="#3D4999" stroke="#3D4999" stroke-width="2" stroke-miterlimit="10" d="M544.8,210.9c1.2,0,1.9,0.2,2.6,0.5l0.5-3.1
		c-0.8-0.3-1.9-0.6-3.4-0.6c-1.8,0-3.8,0.6-5.3,2c-1.9,1.8-2.6,4.6-2.6,7.6v1h-9.2v-1c0-3.4,0.9-6.1,4-6.1c0.9,0,1.8,0.3,2.4,0.5
		l0.8-2.9c-0.7-0.4-1.9-0.8-3.1-0.8c-2.4,0-4.3,0.8-5.5,2c-1.7,1.7-2.4,4.4-2.4,7.5v0.7h-3.1v3h3.1v18.9h3.9v-18.9h9.2v18.9h4v-18.9
		h5.2v-3h-5.3v-1.2C540.5,213.8,541.4,210.9,544.8,210.9z"/>
</g>
<circle fill="none" stroke="#000000" stroke-width="5" stroke-miterlimit="10" cx="324.9" cy="-54.7" r="28.3"/>
<circle fill="none" stroke="#000000" stroke-width="5" stroke-miterlimit="10" cx="476.7" cy="-54.7" r="57.8"/>
<circle fill="none" stroke="#000000" stroke-width="5" stroke-miterlimit="10" cx="655.5" cy="-54.7" r="13.6"/>
</svg>
