<?xml version="1.0" encoding="utf-8"?>
<!-- Generator: Adobe Illustrator 17.1.0, SVG Export Plug-In . SVG Version: 6.00 Build 0)  -->
<!DOCTYPE svg PUBLIC "-//W3C//DTD SVG 1.1//EN" "http://www.w3.org/Graphics/SVG/1.1/DTD/svg11.dtd">
<svg version="1.1" id="Layer_1" xmlns="http://www.w3.org/2000/svg" xmlns:xlink="http://www.w3.org/1999/xlink" x="0px" y="0px"
	 viewBox="0 0 80.6 52.3" enable-background="new 0 0 80.6 52.3" xml:space="preserve">
<g>
	<g>
		<path fill="#F9CDBA" d="M67.9,49.6V2.7c0-1.3-1.1-2.4-2.4-2.4h-4.3H22.1h-4.3c-1.3,0-2.4,1.1-2.4,2.4v42.7l0,4.3
			c0,1.3,1.1,2.4,2.4,2.4h26.5V31.3h-6.8v-7.2h6.8v-7.8c0-4.7,4.2-7.8,7.6-7.8h7.7v6.5h-3.5c-1.7,0-4.1,1.4-4.1,3.2v5.9h6.9v7.2H52
			V52h9.3h4.3C66.9,52,67.9,50.9,67.9,49.6z"/>
		<path fill="#F9CDBA" d="M65.5,52.3H51.7V31h6.9v-6.6h-6.9v-6.2c0-1.9,2.4-3.5,4.4-3.5h3.2V8.8h-7.4c-3.1,0-7.3,2.8-7.3,7.5v8.1
			h-6.8V31h6.8v21.4H17.8c-1.5,0-2.7-1.2-2.7-2.7l0-46.9c0-1.5,1.2-2.7,2.7-2.7h47.8c1.5,0,2.7,1.2,2.7,2.7v46.9
			C68.2,51.1,67,52.3,65.5,52.3z M52.3,51.7h13.2c1.2,0,2.1-0.9,2.1-2.1V2.7c0-1.2-0.9-2.1-2.1-2.1H17.8c-1.2,0-2.1,0.9-2.1,2.1
			l0,46.9c0,1.2,0.9,2.1,2.1,2.1H44V31.6h-6.8v-7.8H44v-7.5c0-4.6,4.2-8.1,7.9-8.1h8v7.1h-3.8c-1.7,0-3.8,1.3-3.8,2.9v5.6h6.9v7.8
			h-6.9V51.7z"/>
	</g>
</g>
</svg>
