<?xml version="1.0" encoding="utf-8"?>
<!-- Generator: Adobe Illustrator 17.1.0, SVG Export Plug-In . SVG Version: 6.00 Build 0)  -->
<!DOCTYPE svg PUBLIC "-//W3C//DTD SVG 1.1//EN" "http://www.w3.org/Graphics/SVG/1.1/DTD/svg11.dtd">
<svg version="1.1" id="Layer_1" xmlns="http://www.w3.org/2000/svg" xmlns:xlink="http://www.w3.org/1999/xlink" x="0px" y="0px"
	 viewBox="0 133.2 329 201.6" enable-background="new 0 133.2 329 201.6" xml:space="preserve">
<path fill="#F9CDBA" d="M250.6,133.2H78.8c-8.2,0-15.1,6.5-15.1,14.7v172.3c0,8.2,6.5,14.7,14.7,14.7h171.8
	c8.2,0,14.7-6.5,14.7-14.7V147.9C265.3,139.7,258.8,133.2,250.6,133.2z M123.3,305H93.5v-95.9h29.8V305z M108.6,195.6
	c-9.8,0-17.6-7.8-17.6-17.6s7.8-17.6,17.6-17.6s17.6,7.8,17.6,17.6S118.4,195.6,108.6,195.6z M235.5,305h-29.8v-46.9
	c0-11-0.4-25.7-15.5-25.7c-15.5,0-18,12.2-18,24.5v47.8H142v-95.5h28.6v13.1h0.8c4.1-7.3,13.5-15.5,28.2-15.5
	c30.2,0,35.9,20,35.9,45.7V305z"/>
</svg>
