<?xml version="1.0" encoding="utf-8"?>
<!-- Generator: Adobe Illustrator 17.1.0, SVG Export Plug-In . SVG Version: 6.00 Build 0)  -->
<!DOCTYPE svg PUBLIC "-//W3C//DTD SVG 1.1//EN" "http://www.w3.org/Graphics/SVG/1.1/DTD/svg11.dtd">
<svg version="1.1" id="Layer_1" xmlns="http://www.w3.org/2000/svg" xmlns:xlink="http://www.w3.org/1999/xlink" x="0px" y="0px"
	 viewBox="0 0 100 100" enable-background="new 0 0 100 100" xml:space="preserve">
<g>
	<path fill="#0078B6" d="M80.5,7.6H7.4C3.9,7.6,1,10.4,1,13.8v73.4c0,3.4,2.8,6.2,6.3,6.2h73.1c3.5,0,6.3-2.8,6.3-6.2V13.8
		C86.8,10.4,84,7.6,80.5,7.6z"/>
	<path fill="#FFFFFF" d="M13.7,39.8h12.7v40.9H13.7V39.8z M20.1,19.4c4.1,0,7.4,3.3,7.4,7.4c0,4.1-3.3,7.4-7.4,7.4
		c-4.1,0-7.4-3.3-7.4-7.4C12.7,22.7,16,19.4,20.1,19.4"/>
	<path fill="#FFFFFF" d="M34.4,39.8h12.2v5.6h0.2c1.7-3.2,5.8-6.6,12-6.6c12.9,0,15.3,8.5,15.3,19.5v22.5H61.4V60.8
		c0-4.7-0.1-10.9-6.6-10.9c-6.6,0-7.6,5.2-7.6,10.5v20.3H34.4V39.8z"/>
</g>
<polygon fill="#010202" points="88.9,76.1 90.4,76.1 90.4,80.7 91.2,80.7 91.2,76.1 92.6,76.1 92.6,75.3 88.9,75.3 "/>
<polygon fill="#010202" points="97.9,75.3 96.3,79.3 94.7,75.3 93.6,75.3 93.6,80.7 94.4,80.7 94.4,76.6 96,80.7 96.6,80.7 
	98.2,76.6 98.2,80.7 99,80.7 99,75.3 "/>
</svg>
