<?xml version="1.0" encoding="utf-8"?>
<!-- Generator: Adobe Illustrator 17.1.0, SVG Export Plug-In . SVG Version: 6.00 Build 0)  -->
<!DOCTYPE svg PUBLIC "-//W3C//DTD SVG 1.1//EN" "http://www.w3.org/Graphics/SVG/1.1/DTD/svg11.dtd">
<svg version="1.1" id="Layer_1" xmlns="http://www.w3.org/2000/svg" xmlns:xlink="http://www.w3.org/1999/xlink" x="0px" y="0px"
	 viewBox="0 0 80.6 59" enable-background="new 0 0 80.6 59" xml:space="preserve">
<path fill="#F9CDBA" d="M13.7,51.7c17,0,34,0,51,0C58.8,45.9,53,40,47.1,34.2c-2.1,2.1-4.2,4.2-6.4,6.4c-1,1-1.6,0.9-2.6,0
	c-2.1-2.1-4.1-4.2-6.2-6.2c-0.2-0.2-0.3-0.3-0.4-0.4C25.6,39.9,19.6,45.8,13.7,51.7z"/>
<path fill="#F9CDBA" d="M50,31.3c0.2,0.1,0.4,0.3,0.6,0.4c6.4,6.4,12.7,12.7,19,19.1c0.9,0.9,1.3,0.9,2.1,0c0.4-0.4,0.7-0.9,0.9-1.5
	c0.2-0.7,0.3-1.4,0.3-2.1c0-12.8,0-25.5,0-38.3c0-0.2,0-0.4,0-0.5C65.3,16,57.7,23.6,50,31.3z"/>
<path fill="#F9CDBA" d="M28.6,31.1c-7.6-7.5-15-15-22.4-22.4c0,0.1,0,0.3,0,0.5c0,12.9,0,25.9,0,38.8c0,0.5,0,1,0.1,1.4
	c0.2,0.6,0.6,1.2,1,1.7c0.4,0.4,0.8,0.4,1.3-0.1c6.5-6.5,13-13.1,19.6-19.6C28.2,31.3,28.4,31.2,28.6,31.1z"/>
<path fill="#F9CDBA" d="M9.6,6.2C9.8,6.4,9.9,6.6,10,6.7c9.4,9.4,18.8,18.8,28.2,28.2c0.9,0.9,1.5,0.9,2.4,0
	C50,25.5,59.4,16.1,68.8,6.7c0.1-0.1,0.2-0.3,0.4-0.5C49.3,6.2,29.5,6.2,9.6,6.2z"/>
</svg>
