<?xml version="1.0" encoding="utf-8"?>
<!-- Generator: Adobe Illustrator 17.1.0, SVG Export Plug-In . SVG Version: 6.00 Build 0)  -->
<!DOCTYPE svg PUBLIC "-//W3C//DTD SVG 1.1//EN" "http://www.w3.org/Graphics/SVG/1.1/DTD/svg11.dtd">
<svg version="1.1" id="Layer_1" xmlns="http://www.w3.org/2000/svg" xmlns:xlink="http://www.w3.org/1999/xlink" x="0px" y="0px"
	 viewBox="0 0 100 100" enable-background="new 0 0 100 100" xml:space="preserve">
<path fill="#BE1822" d="M45.3,61.1c-1.9,9.7-4.1,19-10.8,23.9c-2.1-14.7,3-25.7,5.4-37.4c-4-6.8,0.5-20.5,9-17.1
	c10.5,4.1-9.1,25.3,4.1,27.9C66.6,61.2,72.2,34.6,63.7,26C51.5,13.5,28,25.7,30.9,43.6c0.7,4.4,5.2,5.7,1.8,11.7
	c-7.9-1.7-10.2-7.9-9.9-16.2c0.5-13.5,12.2-23,23.9-24.3c14.8-1.7,28.7,5.4,30.6,19.4c2.2,15.7-6.7,32.7-22.5,31.5
	C50.4,65.3,48.6,63.2,45.3,61.1z"/>
<path fill="#BE1822" d="M50.2,97c-26,0-47.2-21.2-47.2-47.2c0-26,21.2-47.2,47.2-47.2c26,0,47.2,21.2,47.2,47.2
	C97.4,75.8,76.2,97,50.2,97z M50.2,5.2c-24.6,0-44.5,20-44.5,44.5s20,44.5,44.5,44.5c24.6,0,44.5-20,44.5-44.5S74.7,5.2,50.2,5.2z"
	/>
</svg>
