<?xml version="1.0" encoding="utf-8"?>
<!-- Generator: Adobe Illustrator 17.1.0, SVG Export Plug-In . SVG Version: 6.00 Build 0)  -->
<!DOCTYPE svg PUBLIC "-//W3C//DTD SVG 1.1//EN" "http://www.w3.org/Graphics/SVG/1.1/DTD/svg11.dtd">
<svg version="1.1" id="Layer_1" xmlns="http://www.w3.org/2000/svg" xmlns:xlink="http://www.w3.org/1999/xlink" x="0px" y="0px"
	 viewBox="0 0 80.6 59" enable-background="new 0 0 80.6 59" xml:space="preserve">
<g>
	<path fill="#F9CDBA" d="M37.3,36.4c-1.2,5.9-2.5,11.5-6.5,14.5c-1.3-8.9,1.8-15.6,3.3-22.7c-2.4-4.1,0.3-12.4,5.5-10.4
		c6.4,2.5-5.5,15.3,2.5,16.9c8.2,1.7,11.6-14.4,6.5-19.6c-7.4-7.6-21.6-0.2-19.9,10.7c0.4,2.7,3.2,3.5,1.1,7.1c-4.8-1-6.2-4.8-6-9.8
		C24,14.8,31.1,9.1,38.2,8.3c9-1,17.4,3.3,18.5,11.8c1.3,9.5-4.1,19.8-13.6,19.1C40.4,38.9,39.3,37.6,37.3,36.4z"/>
	<path fill="#F9CDBA" d="M40.3,58.1c-15.8,0-28.6-12.8-28.6-28.6S24.5,0.9,40.3,0.9s28.6,12.8,28.6,28.6S56,58.1,40.3,58.1z
		 M40.3,2.5c-14.9,0-27,12.1-27,27s12.1,27,27,27c14.9,0,27-12.1,27-27S55.1,2.5,40.3,2.5z"/>
</g>
</svg>
