<?xml version="1.0" encoding="utf-8"?>
<!-- Generator: Adobe Illustrator 17.1.0, SVG Export Plug-In . SVG Version: 6.00 Build 0)  -->
<!DOCTYPE svg PUBLIC "-//W3C//DTD SVG 1.1//EN" "http://www.w3.org/Graphics/SVG/1.1/DTD/svg11.dtd">
<svg version="1.1" id="Layer_1" xmlns="http://www.w3.org/2000/svg" xmlns:xlink="http://www.w3.org/1999/xlink" x="0px" y="0px"
	 viewBox="0 0 329 468" enable-background="new 0 0 329 468" xml:space="preserve">
<g>
	<path fill="#FECFBB" d="M154.1,149.7c0-0.8-0.2-1.3-1.2-1.3c-3.5,0-8.3,6.1-9.8,11.3C147.1,158.4,154.1,154.5,154.1,149.7z"/>
	<path fill="#FECFBB" d="M175.4,131.3c-1.5,0-9.1,12.8-12.1,23.5c6.4-6.5,12.5-18.9,12.5-22.6C175.8,131.5,175.6,131.3,175.4,131.3z
		"/>
	<path fill="#FECFBB" d="M130.3,132.1c0-0.3-0.1-0.4-0.2-0.4c-1.1,0-7.1,8.9-9.9,17.9C125.3,145.4,130.3,134.9,130.3,132.1z"/>
	<path fill="#FECFBB" d="M187.1,133.5c-1.5,0-7.7,10.6-10.7,21.3c6.4-6.5,11.1-16.7,11.1-20.4C187.5,133.7,187.3,133.5,187.1,133.5z
		"/>
	<path fill="#FECFBB" d="M238.7,130.2c0-46.4-37.6-84-84-84c-46.4,0-84,37.6-84,84c0,41.4,29.9,75.7,69.2,82.7
		c2.9,0.5,5.9,0.9,9,1.1l-2.1,7.8c0,0,6.9,1.3,10.1,0c3.1-1.4,6.9,0.3,10.1,0c-0.5-1.6-1.7-5.6-2.5-8.1
		C206.3,208.8,238.7,173.3,238.7,130.2z M214.4,150.4c4.1-10.7,9.1-23.6,12.1-23.6c0.6,0,1.1,0.6,1.1,1.3c0,3.1-12.2,26.9-16.2,32.8
		C211.4,158.3,213.2,153.6,214.4,150.4z M138.3,96.9c2.8,0,4.9,1.6,4.9,4c0,1.8-1.1,2.3-2.6,2.3c0.2-0.6,0.3-1.3,0.3-1.9
		c0-1.6-0.7-3-2.6-3c-5.1,0-11.1,10-11.1,15.2c0,1.5,0.5,2.1,1.5,2.1c3.3,0,8.7-7.9,11.3-11.7c0.6,0.1,2.2,0.5,2.2,1.3
		c0,1.2-3.1,4.9-3.1,7.5c0,1.1,0.5,2.4,1.8,2.4c1.9,0,5.1-2.6,8.3-7.9c0.9-3.9,3.1-8.5,4.3-8.5c0.4,0,2.4,0.6,2.4,1.2
		c-1.2,1.8-3.5,7.6-3.5,10.5c0,1.3,0.5,2.2,1.9,2.2c2,0,5-3.3,7.2-6.9c0.2-0.8,0.4-1.6,0.5-2.5c0.2-1,1-2.7,2.7-2.7
		c0.3,0,0.7,0.1,1.1,0.2c0,1.8-1.7,8.6-4.2,15.1c3.3-1.3,6.8-4.2,8.9-9.1l0.7,0.5c-1.6,5.2-6.2,8.2-10.2,10.1
		c-2.8,6.9-6.5,13.2-10.2,13.2c-1.8,0-3.4-1-3.4-2.8c0-4.6,5-7,10.4-9.7c1-2.6,2-5.9,3-9.8c-2.3,3.8-4.9,6.8-7.9,6.8
		c-2.1,0-4.3-1.3-4.3-4.4c0-0.2,0-0.3,0-0.5c-2.5,4.3-6.1,7-9.3,7c-2.6,0-3.9-1.9-3.9-3.8c0-0.4,0.1-1,0.2-1.6
		c-3.1,4.1-5.5,6.2-8.1,6.2c-2.3,0-4-1.5-4-4.5C123.4,107.1,131.3,96.9,138.3,96.9z M95.2,110.4c0-5.6,3.9-7.2,6.9-7.2
		c-1.9,2.1-3,4.7-3,7.2c0,4,2.6,7.5,8.2,7.5c4.8,0,10-2.7,10-7.9c0-9.2-16.3-9.5-16.3-19.1c0-6,6-14.4,15.3-14.4
		c4.2,0,5.6,2.3,5.6,5.4c0,3.9-2.4,9.1-4.1,11.8c-1.3-0.3-1.8-1.1-1.8-2.3c0-3,3.2-8.2,3.2-11.3c0-1.5-0.7-2.3-3-2.3
		c-6.8,0-11.8,7.4-11.8,11.8c0,8,16.1,7.9,16.1,18.8c0,7.4-7.4,11.5-14,11.5C100.6,120.1,95.2,116.9,95.2,110.4z M203.1,163.1
		c-2,0-4.1-1.3-5.2-3.9c-2.3,5.4-5.8,9.2-9.7,9.2c-2.8,0-4.4-2-4.4-4.8c0-0.3,0-0.6,0.1-1c-2.4,3.6-5,5.7-7.9,5.7
		c-3.1,0-4.4-2.4-4.4-5.7c0-0.4,0-0.8,0.1-1.3c-2.6,4.4-5.5,7-8.7,7c-3.1,0-4.4-2.4-4.4-5.7c0-0.5,0-1.1,0.1-1.7
		c-3.2,5.1-8.1,8.2-12.8,8.2c-4.4,0-6.7-2.8-6.7-6.3c-2.3,3.1-5.1,5.2-8.1,5.2c-2.5,0-3.8-1.5-3.8-3.5c0-2.3,1.7-5.7,1.7-8.3
		c0-1.9-0.9-2.7-2.1-2.7c-5.5,0-7.5,15.2-10.7,15.2c-1.4,0-2.3-2.8-2.3-5.7c0-10.6,11.7-35.8,16.5-35.8c1.3,0,1.8,2,1.8,3.5
		c0,5.1-6.2,17.1-12.7,21c-1.4,3.3-2,7.9-2,10.9c0,0.8,0.1,1.4,0.1,1.9c2.6-7.6,6.3-14.3,11.2-14.3c3,0,4.2,2.5,4.2,5
		c0,3.4-2.4,6.6-2.4,9.3c0,1.5,0.7,2.1,1.7,2.1c2,0,4.9-2.6,7.1-6.1c1.4-6.3,8-13.7,13.8-13.7c1.7,0,3.4,0.7,3.4,3.4
		c0,5.6-7.4,10.1-13.7,10.7c-0.2,0.7-0.2,1.4-0.2,2c0,2.3,0.9,4.6,4.4,4.6c4.5,0,9.2-4.1,12-9.1c2.5-11.9,13.3-31.5,16.7-31.5
		c1.2,0,1.8,2.5,1.8,4.1c0,4.9-6.6,19.1-14.7,25.7c-0.4,2-0.7,3.9-0.7,5.6c0,2.9,0.8,4.3,2.4,4.3c2.7,0,5.5-3.8,7.5-7.8
		c2.2-11.4,12-29.7,15.4-29.7c1.2,0,1.8,2.5,1.8,4.1c0,4.9-5.2,16.9-13.3,23.5c-0.4,2-0.7,3.9-0.7,5.6c0,2.9,0.8,4.3,2.4,4.3
		c2.5,0,5.1-3.3,7-7c2-5.7,7.3-12.4,12.6-12.4c1.4,0,2,0.5,2.4,1.2c0.1-0.1,0.2-0.1,0.4-0.1c1.4,0,1.9,1.5,1.9,2.2
		c0,1.4-2.2,4-2.2,7c0,2.8,1.9,4.6,3.9,4.6c1.5,0,2.9-1.2,4.4-4.2l0.7,0.6C207,162,204.9,163.1,203.1,163.1z M209.8,167.2
		c-0.9,0-1.8-0.4-1.8-1.5c0-1.2,1.8-2.3,3.2-2.3c0.9,0,1.4,0.3,1.4,1.3C212.6,165.8,211.2,167.2,209.8,167.2z"/>
	<path fill="#FECFBB" d="M148.9,127.1c0,0.6,0.4,1.6,1.5,1.6c1.1,0,3.9-2.5,6.8-9.6C152.6,121.5,148.9,123.6,148.9,127.1z"/>
	<path fill="#FECFBB" d="M187.4,163.2c0,1.7,0.8,2.8,2.1,2.8c2.5,0,5.9-3.8,7.9-8.5c-0.2-0.9-0.3-1.9-0.3-3.1c0-2.5,0.4-4.1,1-5
		C191.9,149.3,187.4,159,187.4,163.2z"/>
</g>
<path fill="none" stroke="#FECFBB" stroke-miterlimit="10" d="M156.7,217c0,0-8.6,21.6-4.2,48.4s18,49.2,15.3,73.2
	c-2.8,24-26,41.6-19,67.5s5.9,31.4,0,49"/>
</svg>
