<?xml version="1.0" encoding="utf-8"?>
<!-- Generator: Adobe Illustrator 17.1.0, SVG Export Plug-In . SVG Version: 6.00 Build 0)  -->
<!DOCTYPE svg PUBLIC "-//W3C//DTD SVG 1.1//EN" "http://www.w3.org/Graphics/SVG/1.1/DTD/svg11.dtd">
<svg version="1.1" id="Layer_1" xmlns="http://www.w3.org/2000/svg" xmlns:xlink="http://www.w3.org/1999/xlink" x="0px" y="0px"
	 viewBox="0 0 329 468" enable-background="new 0 0 329 468" xml:space="preserve">
<path fill="#1D1D1B" d="M340.3,86.5c0,33.5-27.1,60.6-60.6,60.6c-3.6,0-7.2-0.3-10.6-0.9c-28.4-5-49.9-29.8-49.9-59.6
	c0-33.5,27.1-60.6,60.6-60.6S340.3,53.1,340.3,86.5z"/>
<g enable-background="new    ">
	<path fill="#FFFFFF" d="M164.5,68.2c3,0,4.1,1.7,4.1,3.9c0,2.8-1.7,6.6-3,8.5c-0.9-0.2-1.3-0.8-1.3-1.7c0-2.2,2.3-5.9,2.3-8.1
		c0-1-0.5-1.7-2.2-1.7c-4.9,0-8.5,5.3-8.5,8.5c0,5.8,11.6,5.7,11.6,13.6c0,5.4-5.4,8.3-10.1,8.3c-4.2,0-8.1-2.2-8.1-6.9
		c0-4,2.8-5.2,5-5.2c-1.4,1.5-2.1,3.4-2.1,5.2c0,2.9,1.9,5.4,5.9,5.4c3.5,0,7.2-1.9,7.2-5.7c0-6.7-11.8-6.8-11.8-13.8
		C153.5,74.3,157.8,68.2,164.5,68.2z"/>
	<path fill="#FFFFFF" d="M183,88.9c0,0.9-2.2,3.5-2.2,5.4c0,0.8,0.4,1.7,1.3,1.7c1.4,0,3.9-2,6.2-6.1l0.4,0.4
		c-1.6,4.2-4.9,7.1-7.7,7.1c-1.9,0-2.8-1.4-2.8-2.7c0-0.3,0-0.7,0.1-1.1c-2.2,3-4,4.5-5.9,4.5c-1.6,0-2.9-1-2.9-3.2
		c0-4.6,5.7-11.9,10.7-11.9c2,0,3.5,1.2,3.5,2.9c0,1.3-0.8,1.7-1.9,1.7c0.1-0.4,0.2-0.9,0.2-1.4c0-1.2-0.5-2.2-1.9-2.2
		c-3.6,0-8,7.2-8,11c0,1,0.3,1.5,1,1.5c2.4,0,6.2-5.7,8.1-8.5C181.9,88,183,88.3,183,88.9z"/>
	<path fill="#FFFFFF" d="M197,96.5c2.4-0.9,4.9-3,6.4-6.6l0.5,0.4c-1.2,3.7-4.5,5.9-7.3,7.3c-2,5-4.7,9.5-7.3,9.5
		c-1.3,0-2.4-0.7-2.4-2.1c0-3.3,3.6-5,7.5-7c0.7-1.9,1.5-4.3,2.2-7.1c-1.7,2.7-3.6,4.9-5.7,4.9c-1.5,0-3.1-1-3.1-3.1
		c0-2.9,2.3-8.5,3.4-8.5c0.3,0,1.7,0.4,1.7,0.9c-0.9,1.3-2.6,5.5-2.6,7.6c0,0.9,0.3,1.6,1.4,1.6c1.5,0,3.6-2.4,5.2-5
		c0.2-0.6,0.3-1.2,0.4-1.8c0.2-0.7,0.7-2,2-2c0.2,0,0.5,0,0.8,0.1C200,86.9,198.8,91.8,197,96.5z M193.9,98.9
		c-3.2,1.7-5.9,3.2-5.9,5.7c0,0.4,0.3,1.2,1,1.2C189.8,105.8,191.8,104,193.9,98.9z"/>
</g>
<g enable-background="new    ">
	<path fill="#FFFFFF" d="M261,105.2c0-1.4-0.7-1.9-1.5-1.9c-3.9,0-5.4,11-7.7,11c-1,0-1.6-2-1.6-4.1c0-7.6,8.4-25.8,11.9-25.8
		c1,0,1.3,1.4,1.3,2.5c0,3.7-4.5,12.4-9.2,15.2c-1,2.4-1.5,5.7-1.5,7.8c0,0.6,0,1,0.1,1.4c1.9-5.5,4.5-10.3,8.1-10.3
		c2.2,0,3,1.8,3,3.6c0,2.5-1.7,4.7-1.7,6.7c0,1.1,0.5,1.5,1.2,1.5c1.8,0,4.6-2.9,6.2-6.4l0.5,0.5c-1.7,3.9-4.6,6.9-7.7,6.9
		c-1.8,0-2.7-1.1-2.7-2.5C259.8,109.5,261,107.1,261,105.2z M254.8,100.4c3.7-2.9,7.3-10.6,7.3-12.6c0-0.2,0-0.3-0.2-0.3
		C261.1,87.5,256.8,94,254.8,100.4z"/>
	<path fill="#FFFFFF" d="M271.1,108.6c-0.1,0.5-0.2,1-0.2,1.4c0,1.6,0.7,3.3,3.1,3.3c3.4,0,6.9-3.2,8.9-7.1l0.5,0.4
		c-2.2,4.8-6.3,7.8-10.2,7.8c-3.2,0-4.9-2-4.9-4.6c0-4.7,5.4-11.5,10.1-11.5c1.2,0,2.5,0.5,2.5,2.4
		C281,104.9,275.7,108.1,271.1,108.6z M271.3,107.8c2.8-1,7.9-3.8,7.9-7.3c0-0.6-0.2-0.9-0.8-0.9C275.9,99.7,272.4,104,271.3,107.8z
		"/>
	<path fill="#FFFFFF" d="M285.5,105.6c-0.3,1.4-0.5,2.8-0.5,4c0,2.1,0.6,3.1,1.8,3.1c1.9,0,4-2.7,5.4-5.6
		c1.6-8.2,8.7-21.4,11.1-21.4c0.8,0,1.3,1.8,1.3,2.9c0,3.5-3.8,12.2-9.6,17c-0.3,1.4-0.5,2.8-0.5,4c0,2.1,0.6,3.1,1.8,3.1
		c2.1,0,4.3-3.3,5.7-6.4l0.6,0.3c-2.1,4.5-4.6,7.3-7.5,7.3c-2.3,0-3.2-1.8-3.2-4.1c0-0.3,0-0.6,0-0.9c-1.9,3.1-3.9,5-6.3,5
		c-2.3,0-3.2-1.8-3.2-4.1c0-7.7,9.7-25.8,12.4-25.8c0.8,0,1.3,1.8,1.3,2.9C296.1,90.6,291.3,100.8,285.5,105.6z M285.9,104.2
		c4.6-4.7,9-13.6,9-16.3c0-0.5-0.2-0.6-0.3-0.6C293.5,87.3,288.1,96.5,285.9,104.2z M295.3,104.2c4.6-4.7,8-12,8-14.7
		c0-0.5-0.2-0.6-0.3-0.6C302,88.9,297.5,96.5,295.3,104.2z"/>
	<path fill="#FFFFFF" d="M318.6,106.8c-1.2,2.7-2.7,3.4-4,3.4c-1.5,0-2.9-1-3.7-2.8c-1.7,3.9-4.2,6.6-7,6.6c-2,0-3.2-1.4-3.2-3.5
		c0-4.2,4.9-11.8,9.6-11.8c1,0,1.5,0.4,1.7,0.8c0.1,0,0.2,0,0.3,0c1,0,1.4,1.1,1.4,1.6c0,1-1.6,2.9-1.6,5c0,2,1.4,3.3,2.8,3.3
		c1.1,0,2.1-0.8,3.1-3L318.6,106.8z M310.5,106.2c-0.2-0.6-0.2-1.4-0.2-2.3c0-1.8,0.3-2.9,0.8-3.6c-4.5,0-7.7,7-7.7,10
		c0,1.2,0.6,2,1.5,2C306.5,112.3,309,109.6,310.5,106.2z"/>
	<path fill="#FFFFFF" d="M318.1,112.1c0-0.9,1.3-1.6,2.3-1.6c0.6,0,1,0.2,1,1c0,0.8-1,1.8-2.1,1.8
		C318.7,113.2,318.1,112.8,318.1,112.1z M322.7,101.1c2.9-7.7,6.5-17,8.7-17c0.4,0,0.8,0.4,0.8,0.9c0,2.2-8.8,19.4-11.7,23.7
		C320.5,106.7,321.8,103.4,322.7,101.1z"/>
</g>
<g>
	<path fill="#FECFBB" d="M81.3,108.6c0-0.6-0.2-0.9-0.8-0.9c-2.6,0-6,4.4-7.1,8.2C76.2,114.8,81.3,112,81.3,108.6z"/>
	<path fill="#FECFBB" d="M96.6,95.3c-1.1,0-6.5,9.2-8.7,16.9c4.6-4.7,9-13.6,9-16.3C96.9,95.4,96.7,95.3,96.6,95.3z"/>
	<path fill="#FECFBB" d="M64.1,95.8c0-0.2,0-0.3-0.2-0.3c-0.8,0-5.1,6.4-7.1,12.9C60.5,105.5,64.1,97.9,64.1,95.8z"/>
	<path fill="#FECFBB" d="M105,96.9c-1.1,0-5.5,7.7-7.7,15.3c4.6-4.7,8-12,8-14.7C105.3,97,105.2,96.9,105,96.9z"/>
	<path fill="#FECFBB" d="M81.7,33.9c-33.5,0-60.6,27.1-60.6,60.6c0,29.8,21.6,54.6,49.9,59.6c3.5,0.6,7,0.9,10.6,0.9
		c33.5,0,60.6-27.1,60.6-60.6C142.3,61.1,115.2,33.9,81.7,33.9z M69.8,70.5c2,0,3.5,1.2,3.5,2.9c0,1.3-0.8,1.7-1.9,1.7
		c0.1-0.4,0.2-0.9,0.2-1.4c0-1.2-0.5-2.2-1.9-2.2c-3.6,0-8,7.2-8,11c0,1,0.3,1.5,1,1.5c2.4,0,6.2-5.7,8.1-8.5c0.5,0.1,1.6,0.4,1.6,1
		c0,0.9-2.2,3.5-2.2,5.4c0,0.8,0.4,1.7,1.3,1.7c1.3,0,3.7-1.9,6-5.7c0.7-2.8,2.2-6.1,3.1-6.1c0.3,0,1.7,0.4,1.7,0.9
		c-0.9,1.3-2.6,5.5-2.6,7.6c0,0.9,0.3,1.6,1.4,1.6c1.5,0,3.6-2.4,5.2-5c0.2-0.6,0.3-1.2,0.4-1.8c0.2-0.7,0.7-2,2-2
		c0.2,0,0.5,0,0.8,0.1c0,1.3-1.2,6.2-3,10.9c2.4-0.9,4.9-3,6.4-6.6l0.5,0.4c-1.2,3.7-4.5,5.9-7.3,7.3c-2,5-4.7,9.5-7.3,9.5
		c-1.3,0-2.4-0.7-2.4-2.1c0-3.3,3.6-5,7.5-7c0.7-1.9,1.5-4.3,2.2-7.1c-1.7,2.7-3.6,4.9-5.7,4.9c-1.5,0-3.1-1-3.1-3.1
		c0-0.1,0-0.3,0-0.4C75.4,83,72.8,85,70.5,85c-1.9,0-2.8-1.4-2.8-2.7c0-0.3,0-0.7,0.1-1.1c-2.2,3-4,4.5-5.9,4.5
		c-1.6,0-2.9-1-2.9-3.2C59.1,77.8,64.8,70.5,69.8,70.5z M38.8,80.2c0-4,2.8-5.2,5-5.2c-1.4,1.5-2.1,3.4-2.1,5.2
		c0,2.9,1.9,5.4,5.9,5.4c3.5,0,7.2-1.9,7.2-5.7c0-6.7-11.8-6.8-11.8-13.8c0-4.3,4.3-10.4,11.1-10.4c3,0,4.1,1.7,4.1,3.9
		c0,2.8-1.7,6.6-3,8.5c-0.9-0.2-1.3-0.8-1.3-1.7c0-2.2,2.3-5.9,2.3-8.1c0-1-0.5-1.7-2.2-1.7c-4.9,0-8.5,5.3-8.5,8.5
		C45.4,71.1,57,71,57,78.9c0,5.4-5.4,8.3-10.1,8.3C42.7,87.2,38.8,84.9,38.8,80.2z M116.6,118.2c-1.5,0-2.9-1-3.7-2.8
		c-1.7,3.9-4.2,6.6-7,6.6c-2,0-3.2-1.4-3.2-3.5c0-0.2,0-0.5,0-0.7c-1.7,2.6-3.6,4.1-5.7,4.1c-2.3,0-3.2-1.8-3.2-4.1
		c0-0.3,0-0.6,0-0.9c-1.9,3.1-3.9,5-6.3,5c-2.3,0-3.2-1.8-3.2-4.1c0-0.4,0-0.8,0.1-1.3c-2.3,3.7-5.8,5.9-9.2,5.9
		c-3.2,0-4.8-2-4.9-4.5c-1.6,2.2-3.7,3.8-5.9,3.8c-1.8,0-2.7-1.1-2.7-2.5c0-1.7,1.2-4.1,1.2-6c0-1.4-0.7-1.9-1.5-1.9
		c-3.9,0-5.4,11-7.7,11c-1,0-1.6-2-1.6-4.1c0-7.6,8.4-25.8,11.9-25.8c1,0,1.3,1.4,1.3,2.5c0,3.7-4.5,12.4-9.2,15.2
		c-1,2.4-1.5,5.7-1.5,7.8c0,0.6,0,1,0.1,1.4c1.9-5.5,4.5-10.3,8.1-10.3c2.2,0,3,1.8,3,3.6c0,2.5-1.7,4.7-1.7,6.7
		c0,1.1,0.5,1.5,1.2,1.5c1.4,0,3.5-1.9,5.1-4.4c1-4.5,5.7-9.9,9.9-9.9c1.2,0,2.5,0.5,2.5,2.4c0,4.1-5.3,7.3-9.9,7.7
		c-0.1,0.5-0.2,1-0.2,1.4c0,1.6,0.7,3.3,3.1,3.3c3.2,0,6.6-3,8.7-6.6c1.8-8.6,9.6-22.7,12-22.7c0.8,0,1.3,1.8,1.3,2.9
		c0,3.5-4.8,13.7-10.6,18.6c-0.3,1.4-0.5,2.8-0.5,4c0,2.1,0.6,3.1,1.8,3.1c1.9,0,4-2.7,5.4-5.6c1.6-8.2,8.7-21.4,11.1-21.4
		c0.8,0,1.3,1.8,1.3,2.9c0,3.5-3.8,12.2-9.6,17c-0.3,1.4-0.5,2.8-0.5,4c0,2.1,0.6,3.1,1.8,3.1c1.8,0,3.7-2.4,5.1-5
		c1.4-4.1,5.3-8.9,9.1-8.9c1,0,1.5,0.4,1.7,0.8c0.1,0,0.2,0,0.3,0c1,0,1.4,1.1,1.4,1.6c0,1-1.6,2.9-1.6,5c0,2,1.4,3.3,2.8,3.3
		c1.1,0,2.1-0.8,3.1-3l0.5,0.4C119.4,117.4,117.9,118.2,116.6,118.2z M121.4,121.1c-0.7,0-1.3-0.3-1.3-1.1c0-0.9,1.3-1.6,2.3-1.6
		c0.6,0,1,0.2,1,1C123.4,120.2,122.4,121.1,121.4,121.1z M122.5,116.6c0-1.9,1.3-5.3,2.2-7.6c2.9-7.7,6.5-17,8.7-17
		c0.4,0,0.8,0.4,0.8,0.9C134.2,95.2,125.5,112.3,122.5,116.6z"/>
	<path fill="#FECFBB" d="M77.5,92.3c0,0.4,0.3,1.2,1,1.2c0.8,0,2.8-1.8,4.9-6.9C80.2,88.2,77.5,89.7,77.5,92.3z"/>
	<path fill="#FECFBB" d="M105.2,118.3c0,1.2,0.6,2,1.5,2c1.8,0,4.3-2.7,5.7-6.1c-0.2-0.6-0.2-1.4-0.2-2.3c0-1.8,0.3-2.9,0.8-3.6
		C108.5,108.3,105.2,115.3,105.2,118.3z"/>
</g>
<path fill="#FECFBB" d="M78,153.2h10.2c0,0,1.8,5.5,2.2,7.2c-2.2,0.2-5-1-7.2,0s-7.2,0-7.2,0L78,153.2z"/>
<path fill="none" stroke="#FECFBB" stroke-miterlimit="10" d="M83.4,157.1c0,0-1.9,10.1-0.1,19.4S87,190,86,216.3
	s-0.8,28.3,0.3,33.3s5.8,6-1.9,32.3s1.2,35,1.2,35"/>
</svg>
